<?xml version="1.0" encoding="UTF-8" standalone="no"?>
<!-- Created with Inkscape (http://www.inkscape.org/) -->

<svg
   xmlns:dc="http://purl.org/dc/elements/1.1/"
   xmlns:cc="http://creativecommons.org/ns#"
   xmlns:rdf="http://www.w3.org/1999/02/22-rdf-syntax-ns#"
   xmlns:svg="http://www.w3.org/2000/svg"
   xmlns="http://www.w3.org/2000/svg"
   xmlns:sodipodi="http://sodipodi.sourceforge.net/DTD/sodipodi-0.dtd"
   xmlns:inkscape="http://www.inkscape.org/namespaces/inkscape"
   width="90mm"
   height="50mm"
   id="svg2985"
   version="1.1"
   inkscape:version="0.48.3.1 r9886"
   sodipodi:docname="logoBig.svg">
  <defs
     id="defs3">
    <inkscape:path-effect
       effect="spiro"
       id="path-effect3930"
       is_visible="true" />
    <inkscape:path-effect
       effect="spiro"
       id="path-effect3863"
       is_visible="true" />
    <inkscape:path-effect
       effect="spiro"
       id="path-effect3859"
       is_visible="true" />
    <inkscape:path-effect
       effect="spiro"
       id="path-effect3851"
       is_visible="true" />
    <inkscape:path-effect
       effect="spiro"
       id="path-effect3847"
       is_visible="true" />
    <inkscape:path-effect
       effect="spiro"
       id="path-effect3036"
       is_visible="true" />
    <inkscape:path-effect
       effect="spiro"
       id="path-effect3030"
       is_visible="true" />
    <inkscape:path-effect
       effect="spiro"
       id="path-effect3023"
       is_visible="true" />
    <inkscape:path-effect
       effect="spiro"
       id="path-effect3018"
       is_visible="true" />
    <inkscape:path-effect
       effect="spiro"
       id="path-effect3014"
       is_visible="true" />
    <inkscape:path-effect
       effect="spiro"
       id="path-effect3010"
       is_visible="true" />
    <inkscape:path-effect
       effect="spiro"
       id="path-effect3006"
       is_visible="true" />
    <inkscape:path-effect
       effect="spiro"
       id="path-effect3002"
       is_visible="true" />
    <inkscape:path-effect
       effect="spiro"
       id="path-effect2998"
       is_visible="true" />
    <inkscape:path-effect
       effect="spiro"
       id="path-effect2994"
       is_visible="true" />
    <inkscape:path-effect
       effect="spiro"
       id="path-effect3014-4"
       is_visible="true" />
  </defs>
  <sodipodi:namedview
     id="base"
     pagecolor="#ffffff"
     bordercolor="#666666"
     borderopacity="1.0"
     inkscape:pageopacity="0.0"
     inkscape:pageshadow="2"
     inkscape:zoom="3.0197777"
     inkscape:cx="159.44882"
     inkscape:cy="88.58268"
     inkscape:document-units="mm"
     inkscape:current-layer="layer1"
     showgrid="true"
     inkscape:snap-nodes="false"
     inkscape:object-paths="true"
     inkscape:window-width="1366"
     inkscape:window-height="718"
     inkscape:window-x="0"
     inkscape:window-y="22"
     inkscape:window-maximized="1">
    <inkscape:grid
       type="xygrid"
       id="grid3026" />
  </sodipodi:namedview>
  <metadata
     id="metadata2989">
    <rdf:RDF>
      <cc:Work
         rdf:about="">
        <dc:format>image/svg+xml</dc:format>
        <dc:type
           rdf:resource="http://purl.org/dc/dcmitype/StillImage" />
        <dc:title></dc:title>
      </cc:Work>
    </rdf:RDF>
  </metadata>
  <g
     inkscape:label="Layer 1"
     inkscape:groupmode="layer"
     id="layer1">
    <path
       sodipodi:type="arc"
       style="fill:#ff0000;stroke:#ffffff;stroke-width:0.18962620999999999;stroke-miterlimit:4;stroke-opacity:1;stroke-dasharray:none"
       id="path3032-6-9"
       sodipodi:cx="132.5"
       sodipodi:cy="74.665359"
       sodipodi:rx="2.5"
       sodipodi:ry="2.5"
       d="m 135,74.665359 a 2.5,2.5 0 1 1 -5,0 2.5,2.5 0 1 1 5,0 z"
       transform="matrix(11.211447,0,0,11.211447,-1313.0601,-710.63953)" />
    <path
       style="fill:none;stroke:#ffffff;stroke-width:2.12598419000000005;stroke-linecap:butt;stroke-linejoin:miter;stroke-miterlimit:4;stroke-opacity:1;stroke-dasharray:none"
       d="m 75.801929,57.340997 c 2.197979,-1.850746 3.879963,-4.307998 4.809814,-7.026776 0.92985,-2.718777 1.104941,-5.691402 0.50069,-8.50054 -0.60425,-2.809138 -1.986135,-5.446855 -3.951648,-7.542835 -1.965513,-2.09598 -4.509103,-3.644304 -7.273669,-4.427598 -2.764566,-0.783294 -5.7423,-0.799346 -8.51515,-0.0459 -2.77285,0.753443 -5.332985,2.274254 -7.320981,4.348922 -1.987996,2.074668 -3.398238,4.697333 -4.032739,7.499793 -0.6345,2.802461 -0.491468,5.7768 0.409017,8.505445 1.043227,3.16118 3.072462,5.942785 5.548311,8.167993 2.475849,2.225208 5.389561,3.919154 8.419694,5.29744 6.060266,2.756572 12.631594,4.29925 18.596153,7.257214 11.851209,5.877292 20.684029,17.474362 23.260119,30.449627 1.91006,9.62063 0.45686,19.86606 -4.00024,28.60329 -4.457099,8.73723 -11.880931,15.91664 -20.736927,20.13283 -8.855997,4.21619 -19.088796,5.45405 -28.706613,3.52986 -9.617817,-1.9242 -18.571454,-6.99064 -25.21771,-14.20398 C 17.450642,128.38124 13.024914,112.37618 16.070217,97.7258 19.115519,83.075423 29.552838,70.159864 43.237765,64.107578"
       id="path3012"
       inkscape:path-effect="#path-effect3014"
       inkscape:original-d="M 75.801929,57.340997 C 75.670553,46.717904 55.953956,40.479787 50.427263,50.151506 35.234381,76.739039 82.991421,45.579791 82.991421,70.874153 c 0,2.179177 25.143319,29.169007 23.260119,30.449627 -17.716884,12.0478 62.72856,103.07373 -78.66149,38.062 C 4.8686679,128.93839 39.958851,69.572437 43.237765,64.107578"
       inkscape:connector-curvature="0"
       sodipodi:nodetypes="cssssc" />
    <path
       style="fill:none;stroke:#ffffff;stroke-width:2.12598425000000013;stroke-linecap:butt;stroke-linejoin:round;stroke-opacity:1;stroke-miterlimit:4;stroke-dasharray:none"
       d="m 102.67614,120.5464 c 0.76358,-0.74303 2.34693,0.0795 5.28639,-3.3833 1.76151,-1.51762 3.58236,-7.35598 3.16244,-12.80809 l 0,-31.927456 12.77097,31.927456 0,-31.927456 c -0.29394,-6.202699 1.06561,-15.458819 2.04033,-19.546961 0.70861,-3.668986 1.99618,-7.1599 3.38328,-9.938415 2.59638,-4.18176 4.54375,-7.335551 7.18949,-9.515503"
       id="path3016"
       inkscape:connector-curvature="0"
       sodipodi:nodetypes="ccccccccc" />
    <path
       style="fill:none;stroke:#ffffff;stroke-width:2.12598425000000013;stroke-linecap:butt;stroke-linejoin:round;stroke-opacity:1;stroke-miterlimit:4;stroke-dasharray:none"
       d="m 158.50043,129.42753 c -2.78227,-0.18923 -5.88686,-2.91251 -7.40094,-4.65204 -1.6704,-1.05727 -3.90066,-5.74642 -4.87523,-8.07241 l -9.55733,-44.275526 -6.38549,31.927456 12.77098,0"
       id="path3021"
       inkscape:connector-curvature="0"
       sodipodi:nodetypes="cccccc" />
    <path
       style="fill:none;stroke:#ffffff;stroke-width:2.12598425000000013;stroke-linecap:butt;stroke-linejoin:miter;stroke-opacity:1;stroke-miterlimit:4;stroke-dasharray:none"
       d="m 149.43791,110.74049 0,-44.698426"
       id="path3028"
       inkscape:path-effect="#path-effect3030"
       inkscape:original-d="m 149.43791,110.74049 c 0,-44.698426 0,-44.698426 0,-44.698426"
       inkscape:connector-curvature="0"
       sodipodi:nodetypes="cc" />
    <path
       sodipodi:type="arc"
       style="fill:#ff0000;stroke:#ffffff;stroke-width:1.66469938000000006;stroke-miterlimit:4;stroke-opacity:1;stroke-dasharray:none"
       id="path3032"
       sodipodi:cx="132.5"
       sodipodi:cy="74.665359"
       sodipodi:rx="2.5"
       sodipodi:ry="2.5"
       d="m 135,74.665359 a 2.5,2.5 0 1 1 -5,0 2.5,2.5 0 1 1 5,0 z"
       transform="matrix(1.277098,0,0,1.277098,-19.777581,-45.276641)" />
    <path
       style="fill:none;stroke:#ffffff;stroke-width:2.12598425000000013;stroke-linecap:butt;stroke-linejoin:miter;stroke-opacity:1;stroke-miterlimit:4;stroke-dasharray:none"
       d="m 155.82339,72.427554 0,31.927456 44.69844,0"
       id="path3034"
       inkscape:path-effect="#path-effect3036"
       inkscape:original-d="m 155.82339,72.427554 0,31.927456 44.69844,0"
       inkscape:connector-curvature="0" />
    <path
       style="fill:none;stroke:#ffffff;stroke-width:2.12598425000000013;stroke-linecap:butt;stroke-linejoin:miter;stroke-miterlimit:4;stroke-opacity:1;stroke-dasharray:none"
       d="m 188.91671,87.429273 c 1.51862,-1.223572 2.69238,-2.870591 3.35333,-4.705386 0.66095,-1.834795 0.80715,-3.851974 0.41768,-5.762901 -0.38947,-1.910926 -1.31347,-3.709985 -2.63978,-5.13975 -1.32631,-1.429765 -3.05104,-2.486034 -4.92739,-3.017666 -1.87635,-0.531633 -3.89882,-0.537067 -5.778,-0.01552 -1.87918,0.521543 -3.60956,1.568529 -4.94353,2.991146 -1.33398,1.422617 -2.26763,3.216685 -2.66737,5.125491 -0.39973,1.908806 -0.26437,3.926742 0.38671,5.765062 0.73373,2.071663 2.10122,3.883736 3.75151,5.335179 1.65029,1.451443 3.5785,2.558467 5.57916,3.468135 4.00132,1.819336 8.32976,2.883003 12.22722,4.915329 7.71985,4.025503 13.19819,11.734293 15.39849,20.158033 2.14865,8.22597 1.31656,17.19059 -2.27437,24.89698 -3.59093,7.7064 -9.90801,14.10189 -17.55264,17.8225 -7.64463,3.7206 -16.56136,4.74734 -24.86007,2.89946 -8.29871,-1.84789 -15.92732,-6.55162 -21.33524,-13.11193 -4.31256,-5.23153 -7.21787,-11.61219 -8.33248,-18.29985 -1.11461,-6.68765 -0.43574,-13.66568 1.94699,-20.01309"
       id="path3012-2"
       inkscape:path-effect="#path-effect3014-4"
       inkscape:original-d="m 188.91671,87.429273 c -0.087,-7.032614 -13.13961,-11.162331 -16.79835,-4.759529 -10.05787,17.601286 21.55789,-3.026531 21.55789,13.718643 0,1.442654 16.6452,19.310253 15.39849,20.158033 -11.7288,7.9758 27.57967,75.54559 -66.02232,32.50701 -15.04184,-6.91631 -8.55618,-34.69514 -6.38549,-38.31294"
       inkscape:connector-curvature="0"
       sodipodi:nodetypes="cssssc" />
    <path
       style="fill:none;stroke:#ffffff;stroke-width:2.12598425000000013;stroke-linecap:butt;stroke-linejoin:round;stroke-opacity:1;stroke-miterlimit:4;stroke-dasharray:none"
       d="m 192.073,120.5464 c 0.76358,-0.74303 2.34692,0.0795 5.2864,-3.3833 1.7615,-1.51762 3.58235,-7.35598 3.16243,-12.80809 l 0,-31.927456 m 0,12.770981 12.77097,0 m 0,19.156475 0,-31.927456 c -0.29394,-6.202699 1.06561,-15.458816 2.04032,-19.546958 0.70861,-3.668986 1.99619,-7.159899 3.38329,-9.938415 2.59638,-4.181758 4.54375,-7.335551 7.18949,-9.515502"
       id="path3016-1"
       inkscape:connector-curvature="0"
       sodipodi:nodetypes="ccccccccccc" />
    <path
       style="fill:none;stroke:#ffffff;stroke-width:2.12598442999999993;stroke-linecap:butt;stroke-linejoin:round;stroke-miterlimit:4;stroke-opacity:1;stroke-dasharray:none"
       d="m 238.83476,72.427556 -19.15647,0 0,12.77098 12.77098,0 0,0"
       id="path3845"
       inkscape:path-effect="#path-effect3847"
       inkscape:original-d="m 238.83476,72.427556 -19.15647,0 0,12.77098 12.77098,0 0,0"
       inkscape:connector-curvature="0" />
    <path
       sodipodi:nodetypes="cccc"
       style="fill:none;stroke:#ffffff;stroke-width:2.12598442999999993;stroke-linecap:butt;stroke-linejoin:round;stroke-miterlimit:4;stroke-opacity:1;stroke-dasharray:none"
       d="m 219.67829,85.198536 0,19.156474 44.69843,0 19.15647,0"
       id="path3849"
       inkscape:path-effect="#path-effect3851"
       inkscape:original-d="m 219.67829,85.198536 0,19.156474 44.69843,0 19.15647,0"
       inkscape:connector-curvature="0" />
    <path
       style="fill:none;stroke:#ffffff;stroke-width:2.12598425000000013;stroke-linecap:butt;stroke-linejoin:round;stroke-opacity:1;stroke-miterlimit:4;stroke-dasharray:none"
       d="m 245.22025,66.042064 0,31.927447 51.08393,0"
       id="path3857"
       inkscape:path-effect="#path-effect3859"
       inkscape:original-d="m 245.22025,66.042064 0,31.927447 51.08393,0"
       inkscape:connector-curvature="0" />
    <path
       style="fill:none;stroke:#ffffff;stroke-width:2.12598425000000013;stroke-linecap:butt;stroke-linejoin:round;stroke-opacity:1;stroke-miterlimit:4;stroke-dasharray:none"
       d="m 251.60574,78.813044 0,31.927446 57.46941,0"
       id="path3861"
       inkscape:path-effect="#path-effect3863"
       inkscape:original-d="m 251.60574,78.813044 0,31.927446 57.46941,0"
       inkscape:connector-curvature="0" />
    <path
       sodipodi:type="arc"
       style="fill:#ff0000;stroke:#ffffff;stroke-width:0.62048994999999996;stroke-miterlimit:4;stroke-opacity:1;stroke-dasharray:none"
       id="path3032-6"
       sodipodi:cx="132.5"
       sodipodi:cy="74.665359"
       sodipodi:rx="2.5"
       sodipodi:ry="2.5"
       d="m 135,74.665359 a 2.5,2.5 0 1 1 -5,0 2.5,2.5 0 1 1 5,0 z"
       transform="matrix(3.4262993,0,0,3.4262993,-388.46511,-210.83283)" />
    <path
       sodipodi:type="arc"
       style="fill:#ff0000;stroke:#ffffff;stroke-width:0.15810519000000001;stroke-miterlimit:4;stroke-opacity:1;stroke-dasharray:none"
       id="path3032-6-5"
       sodipodi:cx="132.5"
       sodipodi:cy="74.665359"
       sodipodi:rx="2.5"
       sodipodi:ry="2.5"
       d="m 135,74.665359 a 2.5,2.5 0 1 1 -5,0 2.5,2.5 0 1 1 5,0 z"
       transform="matrix(13.446644,0,0,13.446644,-1720.6803,-894.21654)" />
    <path
       sodipodi:type="arc"
       style="fill:#ff0000;stroke:#ffffff;stroke-width:0.85309573000000005;stroke-miterlimit:4;stroke-opacity:1;stroke-dasharray:none"
       id="path3032-6-57"
       sodipodi:cx="132.5"
       sodipodi:cy="74.665359"
       sodipodi:rx="2.5"
       sodipodi:ry="2.5"
       d="m 135,74.665359 a 2.5,2.5 0 1 1 -5,0 2.5,2.5 0 1 1 5,0 z"
       transform="matrix(2.4920817,0,0,2.4920817,-148.01738,-106.97108)" />
    <path
       style="fill:#ff0000;stroke:#ffffff;stroke-width:2.12598425000000013;stroke-linecap:round;stroke-linejoin:round;stroke-opacity:1;stroke-miterlimit:4;stroke-dasharray:none"
       d="m 136.66693,85.198535 -3.08284,16.602275 6.38549,0 -3.30265,-16.602275"
       id="path3928"
       inkscape:path-effect="#path-effect3930"
       inkscape:original-d="m 136.66693,85.198535 -3.08284,16.602275 6.38549,0 z"
       inkscape:connector-curvature="0"
       sodipodi:nodetypes="cccc" />
    <path
       sodipodi:type="arc"
       style="fill:#ff0000;stroke:#ffffff;stroke-width:2.12499975000000019;stroke-miterlimit:4;stroke-opacity:1;stroke-dasharray:none"
       id="path3032-5"
       sodipodi:cx="132.5"
       sodipodi:cy="74.665359"
       sodipodi:rx="2.5"
       sodipodi:ry="2.5"
       d="m 135,74.665359 a 2.5,2.5 0 1 1 -5,0 2.5,2.5 0 1 1 5,0 z"
       transform="matrix(0.50023165,0,0,0.50023165,69.798544,-3.603696)" />
    <path
       sodipodi:type="arc"
       style="fill:#ff0000;stroke:#ffffff;stroke-width:0.99921262000000000;stroke-miterlimit:4;stroke-opacity:1;stroke-dasharray:none"
       id="path3032-5-9"
       sodipodi:cx="132.5"
       sodipodi:cy="74.665359"
       sodipodi:rx="2.5"
       sodipodi:ry="2.5"
       d="m 135,74.665359 a 2.5,2.5 0 1 1 -5,0 2.5,2.5 0 1 1 5,0 z"
       transform="matrix(0.50023165,0,0,0.50023165,35.919669,83.09515)" />
    <path
       sodipodi:type="arc"
       style="fill:#ff0000;stroke:#ffffff;stroke-width:2.12499975000000019;stroke-miterlimit:4;stroke-opacity:1;stroke-dasharray:none"
       id="path3032-5-2"
       sodipodi:cx="132.5"
       sodipodi:cy="74.665359"
       sodipodi:rx="2.5"
       sodipodi:ry="2.5"
       d="m 135,74.665359 a 2.5,2.5 0 1 1 -5,0 2.5,2.5 0 1 1 5,0 z"
       transform="matrix(0.50023165,0,0,0.50023165,70.933816,72.698466)" />
    <path
       sodipodi:type="arc"
       style="fill:#ff0000;stroke:#ffffff;stroke-width:2.12499975000000019;stroke-miterlimit:4;stroke-opacity:1;stroke-dasharray:none"
       id="path3032-5-3"
       sodipodi:cx="132.5"
       sodipodi:cy="74.665359"
       sodipodi:rx="2.5"
       sodipodi:ry="2.5"
       d="m 135,74.665359 a 2.5,2.5 0 1 1 -5,0 2.5,2.5 0 1 1 5,0 z"
       transform="matrix(0.50023165,0,0,0.50023165,93.28073,92.17733)" />
    <path
       sodipodi:type="arc"
       style="fill:#ff0000;stroke:#ffffff;stroke-width:2.12499975000000019;stroke-miterlimit:4;stroke-opacity:1;stroke-dasharray:none"
       id="path3032-5-6"
       sodipodi:cx="132.5"
       sodipodi:cy="74.665359"
       sodipodi:rx="2.5"
       sodipodi:ry="2.5"
       d="m 135,74.665359 a 2.5,2.5 0 1 1 -5,0 2.5,2.5 0 1 1 5,0 z"
       transform="matrix(0.50023165,0,0,0.50023165,125.54633,83.214662)" />
    <path
       sodipodi:type="arc"
       style="fill:#ff0000;stroke:#ffffff;stroke-width:2.12499975000000019;stroke-miterlimit:4;stroke-opacity:1;stroke-dasharray:none"
       id="path3032-5-36"
       sodipodi:cx="132.5"
       sodipodi:cy="74.665359"
       sodipodi:rx="2.5"
       sodipodi:ry="2.5"
       d="m 135,74.665359 a 2.5,2.5 0 1 1 -5,0 2.5,2.5 0 1 1 5,0 z"
       transform="matrix(0.50023165,0,0,0.50023165,135.70402,67.081861)" />
    <path
       sodipodi:type="arc"
       style="fill:#ff0000;stroke:#ffffff;stroke-width:2.12499975000000019;stroke-miterlimit:4;stroke-opacity:1;stroke-dasharray:none"
       id="path3032-5-0"
       sodipodi:cx="132.5"
       sodipodi:cy="74.665359"
       sodipodi:rx="2.5"
       sodipodi:ry="2.5"
       d="m 135,74.665359 a 2.5,2.5 0 1 1 -5,0 2.5,2.5 0 1 1 5,0 z"
       transform="matrix(0.50023165,0,0,0.50023165,147.05674,67.559871)" />
    <path
       sodipodi:type="arc"
       style="fill:#ff0000;stroke:#ffffff;stroke-width:2.12499975000000019;stroke-miterlimit:4;stroke-opacity:1;stroke-dasharray:none"
       id="path3032-5-7"
       sodipodi:cx="132.5"
       sodipodi:cy="74.665359"
       sodipodi:rx="2.5"
       sodipodi:ry="2.5"
       d="m 135,74.665359 a 2.5,2.5 0 1 1 -5,0 2.5,2.5 0 1 1 5,0 z"
       transform="matrix(0.50023165,0,0,0.50023165,121.96126,50.471055)" />
    <path
       sodipodi:type="arc"
       style="fill:#ff0000;stroke:#ffffff;stroke-width:2.12499975000000019;stroke-miterlimit:4;stroke-opacity:1;stroke-dasharray:none"
       id="path3032-5-367"
       sodipodi:cx="132.5"
       sodipodi:cy="74.665359"
       sodipodi:rx="2.5"
       sodipodi:ry="2.5"
       d="m 135,74.665359 a 2.5,2.5 0 1 1 -5,0 2.5,2.5 0 1 1 5,0 z"
       transform="matrix(0.50023165,0,0,0.50023165,89.695665,34.099251)" />
    <path
       sodipodi:type="arc"
       style="fill:#ff0000;stroke:#ffffff;stroke-width:2.12499975000000019;stroke-miterlimit:4;stroke-opacity:1;stroke-dasharray:none"
       id="path3032-5-92"
       sodipodi:cx="132.5"
       sodipodi:cy="74.665359"
       sodipodi:rx="2.5"
       sodipodi:ry="2.5"
       d="m 135,74.665359 a 2.5,2.5 0 1 1 -5,0 2.5,2.5 0 1 1 5,0 z"
       transform="matrix(0.50023165,0,0,0.50023165,134.26999,34.218753)" />
    <path
       sodipodi:type="arc"
       style="fill:#ff0000;stroke:#ffffff;stroke-width:2.12499975000000019;stroke-miterlimit:4;stroke-opacity:1;stroke-dasharray:none"
       id="path3032-5-63"
       sodipodi:cx="132.5"
       sodipodi:cy="74.665359"
       sodipodi:rx="2.5"
       sodipodi:ry="2.5"
       d="m 135,74.665359 a 2.5,2.5 0 1 1 -5,0 2.5,2.5 0 1 1 5,0 z"
       transform="matrix(0.50023165,0,0,0.50023165,173.70571,35.294272)" />
    <path
       sodipodi:type="arc"
       style="fill:#ff0000;stroke:#ffffff;stroke-width:2.12499975000000019;stroke-miterlimit:4;stroke-opacity:1;stroke-dasharray:none"
       id="path3032-5-75"
       sodipodi:cx="132.5"
       sodipodi:cy="74.665359"
       sodipodi:rx="2.5"
       sodipodi:ry="2.5"
       d="m 135,74.665359 a 2.5,2.5 0 1 1 -5,0 2.5,2.5 0 1 1 5,0 z"
       transform="matrix(0.50023165,0,0,0.50023165,167.13311,48.081009)" />
    <path
       sodipodi:type="arc"
       style="fill:#ff0000;stroke:#ffffff;stroke-width:2.12499975000000019;stroke-miterlimit:4;stroke-opacity:1;stroke-dasharray:none"
       id="path3032-5-37"
       sodipodi:cx="132.5"
       sodipodi:cy="74.665359"
       sodipodi:rx="2.5"
       sodipodi:ry="2.5"
       d="m 135,74.665359 a 2.5,2.5 0 1 1 -5,0 2.5,2.5 0 1 1 5,0 z"
       transform="matrix(0.50023165,0,0,0.50023165,178.96383,27.526629)" />
    <path
       sodipodi:type="arc"
       style="fill:#ff0000;stroke:#ffffff;stroke-width:2.12499975000000019;stroke-miterlimit:4;stroke-opacity:1;stroke-dasharray:none"
       id="path3032-5-365"
       sodipodi:cx="132.5"
       sodipodi:cy="74.665359"
       sodipodi:rx="2.5"
       sodipodi:ry="2.5"
       d="m 135,74.665359 a 2.5,2.5 0 1 1 -5,0 2.5,2.5 0 1 1 5,0 z"
       transform="matrix(0.50023165,0,0,0.50023165,185.29744,40.671873)" />
    <path
       sodipodi:type="arc"
       style="fill:#ff0000;stroke:#ffffff;stroke-width:2.12499975000000019;stroke-miterlimit:4;stroke-opacity:1;stroke-dasharray:none"
       id="path3032-5-68"
       sodipodi:cx="132.5"
       sodipodi:cy="74.665359"
       sodipodi:rx="2.5"
       sodipodi:ry="2.5"
       d="m 135,74.665359 a 2.5,2.5 0 1 1 -5,0 2.5,2.5 0 1 1 5,0 z"
       transform="matrix(0.50023165,0,0,0.50023165,231.06678,60.748243)" />
    <path
       sodipodi:type="arc"
       style="fill:#ff0000;stroke:#ffffff;stroke-width:2.12499975000000019;stroke-miterlimit:4;stroke-opacity:1;stroke-dasharray:none"
       id="path3032-5-4"
       sodipodi:cx="132.5"
       sodipodi:cy="74.665359"
       sodipodi:rx="2.5"
       sodipodi:ry="2.5"
       d="m 135,74.665359 a 2.5,2.5 0 1 1 -5,0 2.5,2.5 0 1 1 5,0 z"
       transform="matrix(0.50023165,0,0,0.50023165,218.28005,67.201363)" />
    <path
       sodipodi:type="arc"
       style="fill:#ff0000;stroke:#ffffff;stroke-width:0.99921262000000000;stroke-miterlimit:4;stroke-opacity:1;stroke-dasharray:none"
       id="path3032-5-65"
       sodipodi:cx="132.5"
       sodipodi:cy="74.665359"
       sodipodi:rx="2.5"
       sodipodi:ry="2.5"
       d="m 135,74.665359 a 2.5,2.5 0 1 1 -5,0 2.5,2.5 0 1 1 5,0 z"
       transform="matrix(0.50023165,0,0,0.50023165,243.97303,73.415478)" />
    <path
       sodipodi:type="arc"
       style="fill:#ff0000;stroke:#ffffff;stroke-width:0.99921262000000000;stroke-miterlimit:4;stroke-opacity:1;stroke-dasharray:none"
       id="path3032-5-39"
       sodipodi:cx="132.5"
       sodipodi:cy="74.665359"
       sodipodi:rx="2.5"
       sodipodi:ry="2.5"
       d="m 135,74.665359 a 2.5,2.5 0 1 1 -5,0 2.5,2.5 0 1 1 5,0 z"
       transform="matrix(0.50023165,0,0,0.50023165,160.32147,-4.4999628)" />
    <path
       sodipodi:type="arc"
       style="fill:#ff0000;stroke:#ffffff;stroke-width:2.12499976000000013;stroke-miterlimit:4;stroke-opacity:1;stroke-dasharray:none"
       id="path3032-5-657"
       sodipodi:cx="132.5"
       sodipodi:cy="74.665359"
       sodipodi:rx="2.5"
       sodipodi:ry="2.5"
       d="m 135,74.665359 a 2.5,2.5 0 1 1 -5,0 2.5,2.5 0 1 1 5,0 z"
       transform="matrix(0.50023165,0,0,0.50023165,8.8808649,20.595585)" />
    <path
       sodipodi:type="arc"
       style="fill:#ff0000;stroke:#ffffff;stroke-width:2.12499976000000013;stroke-miterlimit:4;stroke-opacity:1;stroke-dasharray:none"
       id="path3032-5-1"
       sodipodi:cx="132.5"
       sodipodi:cy="74.665359"
       sodipodi:rx="2.5"
       sodipodi:ry="2.5"
       d="m 135,74.665359 a 2.5,2.5 0 1 1 -5,0 2.5,2.5 0 1 1 5,0 z"
       transform="matrix(0.50023165,0,0,0.50023165,-21.950706,26.451194)" />
    <path
       sodipodi:type="arc"
       style="fill:#ff0000;stroke:#ffffff;stroke-width:2.12499975000000019;stroke-miterlimit:4;stroke-opacity:1;stroke-dasharray:none"
       id="path3032-5-00"
       sodipodi:cx="132.5"
       sodipodi:cy="74.665359"
       sodipodi:rx="2.5"
       sodipodi:ry="2.5"
       d="m 135,74.665359 a 2.5,2.5 0 1 1 -5,0 2.5,2.5 0 1 1 5,0 z"
       transform="matrix(0.50023165,0,0,0.50023165,83.09409,28.166209)" />
    <path
       sodipodi:type="arc"
       style="fill:#ff0000;stroke:#ffffff;stroke-width:2.12499975000000019;stroke-miterlimit:4;stroke-opacity:1;stroke-dasharray:none"
       id="path3032-5-79"
       sodipodi:cx="132.5"
       sodipodi:cy="74.665359"
       sodipodi:rx="2.5"
       sodipodi:ry="2.5"
       d="m 135,74.665359 a 2.5,2.5 0 1 1 -5,0 2.5,2.5 0 1 1 5,0 z"
       transform="matrix(0.50023165,0,0,0.50023165,83.263091,73.62765)" />
    <path
       sodipodi:type="arc"
       style="fill:#ff0000;stroke:#ffffff;stroke-width:1.66469938000000006;stroke-miterlimit:4;stroke-opacity:1;stroke-dasharray:none"
       id="path3032-3"
       sodipodi:cx="132.5"
       sodipodi:cy="74.665359"
       sodipodi:rx="2.5"
       sodipodi:ry="2.5"
       d="m 135,74.665359 a 2.5,2.5 0 1 1 -5,0 2.5,2.5 0 1 1 5,0 z"
       transform="matrix(1.277098,0,0,1.277098,142.59177,15.051968)" />
    <path
       sodipodi:type="arc"
       style="fill:#ff0000;stroke:#ffffff;stroke-width:1.66469938000000006;stroke-miterlimit:4;stroke-opacity:1;stroke-dasharray:none"
       id="path3032-0"
       sodipodi:cx="132.5"
       sodipodi:cy="74.665359"
       sodipodi:rx="2.5"
       sodipodi:ry="2.5"
       d="m 135,74.665359 a 2.5,2.5 0 1 1 -5,0 2.5,2.5 0 1 1 5,0 z"
       transform="matrix(1.277098,0,0,1.277098,59.41822,-63.341483)" />
    <path
       sodipodi:type="arc"
       style="fill:#ff0000;stroke:#ffffff;stroke-width:1.66469938000000006;stroke-miterlimit:4;stroke-opacity:1;stroke-dasharray:none"
       id="path3032-07"
       sodipodi:cx="132.5"
       sodipodi:cy="74.665359"
       sodipodi:rx="2.5"
       sodipodi:ry="2.5"
       d="m 135,74.665359 a 2.5,2.5 0 1 1 -5,0 2.5,2.5 0 1 1 5,0 z"
       transform="matrix(1.277098,0,0,1.277098,-68.688149,25.568164)" />
    <path
       sodipodi:type="arc"
       style="fill:#ff0000;stroke:#ffffff;stroke-width:1.66469938000000006;stroke-miterlimit:4;stroke-opacity:1;stroke-dasharray:none"
       id="path3032-9"
       sodipodi:cx="132.5"
       sodipodi:cy="74.665359"
       sodipodi:rx="2.5"
       sodipodi:ry="2.5"
       d="m 135,74.665359 a 2.5,2.5 0 1 1 -5,0 2.5,2.5 0 1 1 5,0 z"
       transform="matrix(1.277098,0,0,1.277098,92.400834,-6.9364382)" />
  </g>
</svg>
